<svg width="37" height="38" viewBox="0 0 37 38" fill="none" xmlns="http://www.w3.org/2000/svg">
<path d="M20.8143 18.8926L12.7824 26.9397C12.1897 27.5334 12.1897 28.4961 12.7824 29.0898C13.375 29.6836 14.3358 29.6836 14.9284 29.0898L24.0334 19.9676C24.626 19.3739 24.626 18.4112 24.0334 17.8175L14.9284 8.6953C14.3358 8.10157 13.375 8.10157 12.7824 8.6953C12.1897 9.28904 12.1897 10.2517 12.7824 10.8454L20.8143 18.8926Z" fill="black"/>
<mask id="mask0_1111_3773" style="mask-type:alpha" maskUnits="userSpaceOnUse" x="12" y="8" width="13" height="22">
<path d="M20.8143 18.8926L12.7824 26.9397C12.1897 27.5334 12.1897 28.4961 12.7824 29.0898C13.375 29.6836 14.3358 29.6836 14.9284 29.0898L24.0334 19.9676C24.626 19.3739 24.626 18.4112 24.0334 17.8175L14.9284 8.6953C14.3358 8.10157 13.375 8.10157 12.7824 8.6953C12.1897 9.28904 12.1897 10.2517 12.7824 10.8454L20.8143 18.8926Z" fill="white"/>
</mask>
<g mask="url(#mask0_1111_3773)">
<rect x="0.197266" y="0.648438" width="36.4199" height="36.4888" fill="black"/>
</g>
</svg>
