<svg width="38" height="37" viewBox="0 0 38 37" fill="none" xmlns="http://www.w3.org/2000/svg">
<path d="M21.5161 18.7233L13.4984 26.7562C12.9068 27.3489 12.9068 28.3098 13.4984 28.9025C14.0899 29.4952 15.0491 29.4952 15.6406 28.9025L24.7295 19.7965C25.3211 19.2038 25.3211 18.2429 24.7295 17.6502L15.6406 8.54413C15.0491 7.95144 14.0899 7.95144 13.4984 8.54413C12.9068 9.13681 12.9068 10.0978 13.4984 10.6904L21.5161 18.7233Z" fill="white"/>
<mask id="mask0_1111_3785" style="mask-type:alpha" maskUnits="userSpaceOnUse" x="13" y="8" width="13" height="22">
<path d="M21.5161 18.7233L13.4984 26.7562C12.9068 27.3489 12.9068 28.3098 13.4984 28.9025C14.0899 29.4952 15.0491 29.4952 15.6406 28.9025L24.7295 19.7965C25.3211 19.2038 25.3211 18.2429 24.7295 17.6502L15.6406 8.54413C15.0491 7.95144 14.0899 7.95144 13.4984 8.54413C12.9068 9.13681 12.9068 10.0978 13.4984 10.6904L21.5161 18.7233Z" fill="white"/>
</mask>
<g mask="url(#mask0_1111_3785)">
<rect x="0.935547" y="0.511719" width="36.3554" height="36.4242" fill="white"/>
</g>
</svg>
