<svg width="104" height="107" viewBox="0 0 104 107" fill="none" xmlns="http://www.w3.org/2000/svg">
<mask id="mask0_1111_3848" style="mask-type:alpha" maskUnits="userSpaceOnUse" x="38" y="27" width="30" height="53">
<path d="M45.2317 41.8102C45.2317 34.0838 51.3242 27.8203 58.8397 27.8203H65.6437C66.8963 27.8203 67.9117 28.8642 67.9117 30.152V39.4786C67.9117 40.7663 66.8963 41.8102 65.6437 41.8102H58.8397V46.4736H65.6437C67.1192 46.4736 68.2019 47.8991 67.844 49.3707L65.576 58.6973C65.3236 59.7353 64.4164 60.4635 63.3757 60.4635H58.8397V76.7851C58.8397 78.0728 57.8243 79.1167 56.5717 79.1167H47.4997C46.2471 79.1167 45.2317 78.0728 45.2317 76.7851V60.4635H40.6957C39.4432 60.4635 38.4277 59.4196 38.4277 58.1318V48.8052C38.4277 47.5175 39.4432 46.4736 40.6957 46.4736H45.2317V41.8102ZM63.3757 32.4836H58.8397C53.8294 32.4836 49.7677 36.6593 49.7677 41.8102V48.8052C49.7677 50.0929 48.7523 51.1369 47.4997 51.1369H42.9637V55.8002H47.4997C48.7523 55.8002 49.7677 56.8441 49.7677 58.1318V74.4534H54.3037V58.1318C54.3037 56.8441 55.3191 55.8002 56.5717 55.8002H61.6049L62.7389 51.1369H56.5717C55.3191 51.1369 54.3037 50.0929 54.3037 48.8052V41.8102C54.3037 39.2348 56.3346 37.1469 58.8397 37.1469H63.3757V32.4836Z" fill="white"/>
</mask>
<g mask="url(#mask0_1111_3848)">
<path d="M45.2317 41.8102C45.2317 34.0838 51.3242 27.8203 58.8397 27.8203H65.6437C66.8963 27.8203 67.9117 28.8642 67.9117 30.152V39.4786C67.9117 40.7663 66.8963 41.8102 65.6437 41.8102H58.8397V46.4736H65.6437C67.1192 46.4736 68.2019 47.8991 67.844 49.3707L65.576 58.6973C65.3236 59.7353 64.4164 60.4635 63.3757 60.4635H58.8397V76.7851C58.8397 78.0728 57.8243 79.1167 56.5717 79.1167H47.4997C46.2471 79.1167 45.2317 78.0728 45.2317 76.7851V60.4635H40.6957C39.4432 60.4635 38.4277 59.4196 38.4277 58.1318V48.8052C38.4277 47.5175 39.4432 46.4736 40.6957 46.4736H45.2317V41.8102ZM63.3757 32.4836H58.8397C53.8294 32.4836 49.7677 36.6593 49.7677 41.8102V48.8052C49.7677 50.0929 48.7523 51.1369 47.4997 51.1369H42.9637V55.8002H47.4997C48.7523 55.8002 49.7677 56.8441 49.7677 58.1318V74.4534H54.3037V58.1318C54.3037 56.8441 55.3191 55.8002 56.5717 55.8002H61.6049L62.7389 51.1369H56.5717C55.3191 51.1369 54.3037 50.0929 54.3037 48.8052V41.8102C54.3037 39.2348 56.3346 37.1469 58.8397 37.1469H63.3757V32.4836Z" fill="black"/>
<path d="M79.2512 25.4648H24.8184V81.4247H79.2512V25.4648Z" fill="black"/>
</g>
<path d="M52.0304 105.926C80.2137 105.926 103.061 82.4378 103.061 53.4632C103.061 24.4886 80.2137 1 52.0304 1C23.8471 1 1 24.4886 1 53.4632C1 82.4378 23.8471 105.926 52.0304 105.926Z" stroke="#D9D9D9"/>
</svg>
