<svg width="198" height="198" viewBox="0 0 198 198" fill="none" xmlns="http://www.w3.org/2000/svg">
<circle cx="98.881" cy="99.0919" r="98.8693" fill="#342679" fill-opacity="0.7"/>
<g clip-path="url(#clip0_1111_3923)">
<path d="M115.418 125.325C114.734 125.325 114.117 124.876 113.895 124.232C113.686 123.624 113.874 122.93 114.357 122.506C114.883 122.044 115.672 121.978 116.267 122.348C116.82 122.692 117.119 123.362 117.001 124.003C116.863 124.758 116.186 125.325 115.418 125.325Z" fill="white"/>
<path d="M128.364 87.5523C125.346 83.5179 121.266 80.6696 116.873 79.5321C113.952 78.7761 110.421 78.8397 106.376 79.7217L106.375 79.7207C106.357 79.725 106.319 79.7337 106.258 79.7474C106.152 79.7686 106.048 79.7929 105.946 79.8168C105.692 79.8761 105.301 79.9698 104.882 80.0789C104.332 80.2213 103.773 80.3454 103.216 80.449C103.207 80.0324 103.192 79.6042 103.167 79.1663C103.644 73.861 105.797 69.301 109.587 65.5859C112.867 62.3706 116.214 61.0159 116.244 61.0039C117.071 60.6788 117.478 59.7447 117.153 58.9175C116.828 58.0903 115.894 57.6835 115.067 58.0084C114.91 58.0703 111.174 59.563 107.436 63.1883C105.456 65.1089 103.258 67.8603 101.739 71.5531C100.929 69.255 99.7078 67.0554 97.8982 65.2478C90.6043 57.9618 76.9345 60.2305 76.1291 60.3719C76.1285 60.3721 76.1278 60.3721 76.1272 60.3723C75.5376 60.4666 75.0423 60.8785 74.8677 61.4494C74.8419 61.5336 74.8213 61.6121 74.8096 61.6776C74.717 62.1974 72.8433 73.1632 77.564 80.7536C71.0312 83.8864 64.127 91.6372 64.127 104.519C64.127 109.088 65.5192 114.673 68.0476 120.244C70.5246 125.703 73.8701 130.691 77.4675 134.289C81.387 138.214 85.4143 140.288 89.1137 140.288C91.2801 140.288 93.5121 139.96 95.5693 139.339C97.5956 138.727 99.7477 138.688 101.794 139.226C101.801 139.228 101.808 139.23 101.815 139.232C101.942 139.265 102.068 139.301 102.194 139.339C104.251 139.96 106.483 140.288 108.649 140.288C112.189 140.288 116.047 138.379 119.805 134.769C127.561 127.33 133.636 114.043 133.636 104.519C133.635 98.0299 131.812 92.163 128.364 87.5523ZM95.6232 67.525C98.6996 70.5982 99.7033 75.287 99.934 79.2288C99.8771 79.9524 99.8471 83.1138 99.8471 83.1138L87.6414 70.9212C87.0126 70.2931 85.9936 70.2934 85.3657 70.9224C84.7376 71.5511 84.7381 72.5701 85.3668 73.1983L97.6574 85.4756C93.4541 85.7008 86.1816 85.3815 81.9621 81.1665C76.8941 76.104 77.4512 66.6574 77.822 63.3887C81.0936 63.0183 90.5537 62.4608 95.6232 67.525ZM117.576 132.447C114.428 135.471 111.34 137.069 108.648 137.069C106.819 137.069 104.857 136.781 103.124 136.259C102.963 136.21 102.802 136.164 102.64 136.122C102.638 136.121 102.635 136.12 102.633 136.119C100.005 135.424 97.2401 135.472 94.6382 136.258C92.9044 136.781 90.9422 137.069 89.1129 137.069C86.2863 137.069 83.0465 135.321 79.7432 132.014C72.7907 125.06 67.3447 112.983 67.3447 104.519C67.3447 92.6917 73.7906 85.8305 79.6054 83.3608C79.6326 83.3885 79.6602 83.4162 79.6877 83.4437C84.0986 87.8498 90.8741 88.7555 95.7007 88.7553C98.7622 88.7553 101.044 88.4087 101.431 88.3241C102.716 88.0428 102.685 87.4437 102.765 87.0739C102.766 87.0692 102.767 87.0646 102.768 87.0599C102.769 87.0547 102.77 87.0494 102.771 87.0443C102.772 87.0377 102.773 87.0311 102.775 87.0243C102.775 87.0214 102.776 87.0187 102.776 87.0158C102.806 86.8478 103.024 85.5881 103.144 83.7036C103.238 83.7042 103.334 83.6967 103.43 83.6803C104.184 83.5509 104.944 83.3876 105.69 83.1943C105.977 83.1195 106.255 83.0514 106.486 82.9965C113.124 85.3115 119.689 92.7778 119.689 104.519C119.689 107.958 118.802 112.06 117.123 116.38C116.801 117.208 117.212 118.141 118.04 118.463C118.232 118.537 118.429 118.572 118.623 118.572C119.267 118.572 119.876 118.182 120.123 117.545C121.945 112.857 122.907 108.353 122.907 104.519C122.907 93.824 117.989 86.2128 112.052 82.2297C113.529 82.199 114.871 82.3384 116.067 82.6478C122.978 84.4377 130.417 92.0453 130.417 104.519C130.417 113.127 124.657 125.655 117.576 132.447Z" fill="white"/>
</g>
<defs>
<clipPath id="clip0_1111_3923">
<rect width="82.3911" height="82.3911" fill="white" transform="translate(57.6855 57.8965)"/>
</clipPath>
</defs>
</svg>
