<svg width="199" height="199" viewBox="0 0 199 199" fill="none" xmlns="http://www.w3.org/2000/svg">
<circle cx="99.3009" cy="99.6291" r="98.8693" fill="#342679" fill-opacity="0.7"/>
<g clip-path="url(#clip0_1111_3928)">
<path d="M140.194 71.7483C139.951 71.4007 139.6 71.173 139.217 71.0794C138.439 70.8721 129.557 68.6416 123.33 72.9263C122.923 73.2066 122.539 73.5086 122.176 73.8269C122.566 70.8214 122.769 67.7776 122.769 64.7105C122.769 63.782 122.016 63.0294 121.088 63.0294C120.159 63.0294 119.407 63.782 119.407 64.7105C119.407 66.3773 119.344 68.0301 119.225 69.6678C115.796 64.4072 108.993 62.0915 107.822 61.7251C107.454 61.5908 107.037 61.5838 106.643 61.7354C106.241 61.8896 105.933 62.181 105.751 62.536C105.399 63.1892 101.734 70.2302 103.382 76.8752C103.24 76.871 103.094 76.8837 102.948 76.9179C102.544 77.0128 102.208 77.2466 101.98 77.5572C101.53 78.142 96.9701 84.2568 97.3105 90.915C95.7179 89.7684 94.3842 89.0671 93.9379 88.8433C93.5915 88.65 93.1754 88.5778 92.7576 88.6698C92.3596 88.7572 92.0257 88.9793 91.7934 89.2778C91.5916 89.5359 87.6994 94.5894 87.1436 100.56C85.9514 99.3674 84.9488 98.5805 84.5855 98.3065C84.2878 98.0591 83.9003 97.9093 83.4867 97.9193C83.0517 97.9257 82.6577 98.097 82.3629 98.3731C81.7728 98.9051 75.0521 105.138 75.2499 112.701C75.3952 118.195 79.1934 122.714 81.5909 125.028C74.8492 128.266 67.453 130.416 59.6125 131.242C58.6893 131.34 58.0196 132.167 58.1168 133.09C58.2077 133.954 58.9372 134.595 59.7867 134.595C59.8456 134.595 59.9049 134.592 59.9648 134.586C68.2792 133.71 76.2843 131.362 83.6518 127.719C85.1699 130.184 89.2835 135.915 95.4356 137.314C96.4245 137.538 97.412 137.637 98.3845 137.637C104.501 137.637 109.995 133.74 111.176 132.84C111.336 132.738 111.48 132.608 111.6 132.454C111.993 131.949 112.065 131.265 111.786 130.689C111.644 130.397 109.001 125.04 104.227 121.785C106.354 122.866 108.858 123.701 111.526 123.7C111.758 123.7 111.992 123.694 112.226 123.681C119.42 123.28 124.788 116.608 125.804 115.25C125.929 115.109 126.031 114.947 126.104 114.767C126.345 114.172 126.227 113.492 125.799 113.014C125.63 112.824 123.075 110.013 119.31 107.991C121.357 107.899 123.492 107.468 125.47 106.448C131.88 103.14 134.049 94.8665 134.421 93.2068C134.476 93.032 134.503 92.8466 134.498 92.6572C134.481 92.0105 134.094 91.4313 133.503 91.1676C133.327 91.0887 131.265 90.1854 128.408 89.6236C130.142 89.2528 131.875 88.6011 133.439 87.5245C139.532 83.3305 140.39 74.2954 140.487 72.9066C140.533 72.5117 140.44 72.0993 140.194 71.7483ZM119.934 89.6818C119.257 89.8592 118.586 90.0894 117.929 90.3815C118.061 90.0431 118.19 89.7036 118.318 89.3631C118.747 89.4623 119.294 89.5759 119.934 89.6818ZM108.111 65.402C110.555 66.3767 115.6 68.8518 117.275 73.1795C118.953 77.5155 117.017 82.7274 115.931 85.084C114.754 84.5868 112.948 83.7096 111.226 82.4141C110.419 81.5319 109.563 80.7524 108.733 80.0796C108.021 79.2285 107.417 78.2728 107.004 77.2062C105.335 72.8892 107.095 67.7549 108.111 65.402ZM115.123 88.3816C115.044 88.5913 114.968 88.8021 114.887 89.0106C114.823 88.735 114.751 88.4634 114.67 88.1964C114.83 88.2636 114.982 88.3254 115.123 88.3816ZM103.849 80.7635C104.545 81.1813 105.462 81.7802 106.425 82.5409C107.197 83.4161 108.047 84.1921 108.916 84.8702C110.176 86.2879 111.237 87.9838 111.644 89.9128C112.603 94.4621 109.854 99.295 108.404 101.447C106.234 100.084 101.824 96.8098 100.86 92.2361C99.9061 87.7083 102.469 82.9234 103.849 80.7635ZM104.982 103.175C105.555 103.597 106.09 103.956 106.552 104.248C105.943 105.083 105.314 105.901 104.667 106.706C104.898 105.568 105.022 104.382 104.982 103.175ZM93.6346 92.52C95.8904 93.8751 100.473 97.1293 101.43 101.67C102.389 106.219 99.64 111.052 98.1898 113.204C96.0201 111.84 91.6093 108.567 90.6454 103.993C89.691 99.4609 92.2547 94.6777 93.6346 92.52ZM98.5436 117.811C99.313 118.516 100.55 119.558 102.121 120.572C101.267 120.167 100.36 119.842 99.4013 119.624C98.514 119.422 97.6265 119.328 96.7497 119.316C97.3554 118.825 97.9534 118.323 98.5436 117.811ZM95.9005 115.722C94.39 117.007 92.8205 118.227 91.1959 119.376C92.1009 117.615 92.7965 115.617 92.9636 113.482C94.0165 114.41 95.0465 115.158 95.9005 115.722ZM78.6113 112.612C78.4902 107.983 81.8745 103.74 83.6211 101.866C85.5954 103.606 89.5156 107.634 89.6379 112.271C89.761 116.919 86.1857 121.177 84.3711 123.032C82.4829 121.3 78.7349 117.285 78.6113 112.612ZM108.068 130.922C105.879 132.357 100.898 135.106 96.1805 134.035C91.5074 132.973 88.1284 128.48 86.7188 126.277C88.9369 124.758 93.9754 121.84 98.6569 122.903C103.349 123.968 106.694 128.656 108.068 130.922ZM122.286 114.261C120.61 116.199 116.706 120.063 112.039 120.323C107.413 120.583 103.074 117.321 101.151 115.631C102.832 113.607 106.744 109.57 111.376 109.312C116.02 109.054 120.379 112.502 122.286 114.261ZM130.807 93.7407C130.068 96.1942 128.083 101.316 123.929 103.459C119.812 105.582 114.519 104.38 112.074 103.622C112.781 101.087 114.703 95.8059 118.827 93.6781C122.958 91.5461 128.347 92.9134 130.807 93.7407ZM131.532 84.7546C127.702 87.3915 122.184 86.7148 119.64 86.2044C120.063 83.677 121.386 78.346 125.237 75.6957C129.051 73.0714 134.453 73.5958 136.976 74.0384C136.594 76.6419 135.355 82.1234 131.532 84.7546Z" fill="white"/>
</g>
<defs>
<clipPath id="clip0_1111_3928">
<rect width="82.3911" height="82.3911" fill="white" transform="translate(58.1055 58.4336)"/>
</clipPath>
</defs>
</svg>
