<svg width="104" height="107" viewBox="0 0 104 107" fill="none" xmlns="http://www.w3.org/2000/svg">
<mask id="mask0_1111_3857" style="mask-type:alpha" maskUnits="userSpaceOnUse" x="27" y="27" width="51" height="53">
<path d="M63.6744 27.8203C71.1898 27.8203 77.2822 34.0838 77.2822 41.8102V65.1268C77.2822 72.8532 71.1898 79.1167 63.6744 79.1167H40.9946C33.4792 79.1167 27.3867 72.8532 27.3867 65.1268V41.8102C27.3867 34.0838 33.4792 27.8203 40.9946 27.8203H63.6744ZM63.6744 32.4836H40.9946C35.9843 32.4836 31.9227 36.6593 31.9227 41.8102V65.1268C31.9227 70.2777 35.9843 74.4534 40.9946 74.4534H63.6744C68.6846 74.4534 72.7463 70.2777 72.7463 65.1268V41.8102C72.7463 36.6593 68.6846 32.4836 63.6744 32.4836ZM54.096 41.8355C59.0373 42.5888 62.9171 46.5775 63.6498 51.6576C64.3674 56.6326 61.9007 61.52 57.5309 63.7812C53.1611 66.0424 47.8733 65.1677 44.4141 61.6113C40.9548 58.0549 40.104 52.6187 42.3034 48.1262C44.5029 43.6337 49.2568 41.0977 54.096 41.8355ZM46.3551 50.2228C45.0354 52.9183 45.5459 56.18 47.6215 58.3138C49.6971 60.4477 52.8697 60.9725 55.4916 59.6158C58.1135 58.2591 59.5935 55.3266 59.1629 52.3416C58.7233 49.2936 56.3954 46.9003 53.4306 46.4483C50.5271 46.0057 47.6748 47.5273 46.3551 50.2228ZM68.1859 39.1369C68.0394 38.1209 67.2635 37.3232 66.2752 37.1725C65.3074 37.025 64.3567 37.5321 63.9168 38.4306C63.4769 39.3291 63.6471 40.4163 64.3389 41.1275C65.0308 41.8388 66.0883 42.0137 66.9622 41.5615C67.8361 41.1093 68.3294 40.1318 68.1859 39.1369Z" fill="white"/>
</mask>
<g mask="url(#mask0_1111_3857)">
<path d="M63.6744 27.8203C71.1898 27.8203 77.2822 34.0838 77.2822 41.8102V65.1268C77.2822 72.8532 71.1898 79.1167 63.6744 79.1167H40.9946C33.4792 79.1167 27.3867 72.8532 27.3867 65.1268V41.8102C27.3867 34.0838 33.4792 27.8203 40.9946 27.8203H63.6744ZM63.6744 32.4836H40.9946C35.9843 32.4836 31.9227 36.6593 31.9227 41.8102V65.1268C31.9227 70.2777 35.9843 74.4534 40.9946 74.4534H63.6744C68.6846 74.4534 72.7463 70.2777 72.7463 65.1268V41.8102C72.7463 36.6593 68.6846 32.4836 63.6744 32.4836ZM54.096 41.8355C59.0373 42.5888 62.9171 46.5775 63.6498 51.6576C64.3674 56.6326 61.9007 61.52 57.5309 63.7812C53.1611 66.0424 47.8733 65.1677 44.4141 61.6113C40.9548 58.0549 40.104 52.6187 42.3034 48.1262C44.5029 43.6337 49.2568 41.0977 54.096 41.8355ZM46.3551 50.2228C45.0354 52.9183 45.5459 56.18 47.6215 58.3138C49.6971 60.4477 52.8697 60.9725 55.4916 59.6158C58.1135 58.2591 59.5935 55.3266 59.1629 52.3416C58.7233 49.2936 56.3954 46.9003 53.4306 46.4483C50.5271 46.0057 47.6748 47.5273 46.3551 50.2228ZM68.1859 39.1369C68.0394 38.1209 67.2635 37.3232 66.2752 37.1725C65.3074 37.025 64.3567 37.5321 63.9168 38.4306C63.4769 39.3291 63.6471 40.4163 64.3389 41.1275C65.0308 41.8388 66.0883 42.0137 66.9622 41.5615C67.8361 41.1093 68.3294 40.1318 68.1859 39.1369Z" fill="black"/>
<path d="M79.5391 25.4648H25.1074V81.4247H79.5391V25.4648Z" fill="black"/>
</g>
<path d="M52.327 105.926C80.5102 105.926 103.357 82.4378 103.357 53.4632C103.357 24.4886 80.5102 1 52.327 1C24.1439 1 1.29688 24.4886 1.29688 53.4632C1.29688 82.4378 24.1439 105.926 52.327 105.926Z" stroke="#D9D9D9"/>
</svg>
