<svg width="198" height="198" viewBox="0 0 198 198" fill="none" xmlns="http://www.w3.org/2000/svg">
<circle cx="98.8693" cy="98.8693" r="98.8693" fill="#342679" fill-opacity="0.7"/>
<g clip-path="url(#clip0_2019_3375)">
<path d="M126.443 88.1879C127.704 89.2071 128.857 90.3536 129.842 91.6007C130.801 92.8076 131.599 94.1084 132.196 95.4762C133.899 99.3717 133.718 103.059 132.464 106.486C131.244 109.811 129.018 112.855 126.55 115.584C126.517 115.618 126.483 115.651 126.45 115.685C124.465 117.582 122.185 119.178 119.604 120.465C117.023 121.759 114.146 122.738 110.975 123.402C108.098 124.006 104.96 124.348 101.568 124.428C98.1885 124.508 94.5679 124.321 90.7058 123.871C88.1982 123.583 85.8649 123.167 83.7059 122.638C81.5402 122.108 79.5489 121.458 77.7385 120.687C75.3784 119.688 72.2338 117.797 69.6591 115.557C67.5605 113.727 65.7971 111.635 65.0528 109.523C64.7846 108.759 64.6438 107.994 64.6371 107.263C64.6304 106.144 64.9456 105.111 65.6026 104.226C66.2396 103.375 67.1783 102.697 68.4321 102.255C69.458 101.893 70.7118 101.685 72.207 101.678H72.2338C82.09 101.846 87.2528 97.0585 92.3418 92.345C96.8408 88.1745 101.279 84.0577 108.688 82.9916C111.813 82.5424 114.951 82.824 117.921 83.6956C121.012 84.6008 123.922 86.1496 126.443 88.1879ZM119.296 68.0598C121.072 68.5358 122.802 69.1728 124.452 69.9573C126.121 70.7552 127.73 71.7072 129.246 72.7934C133.631 75.9381 136.487 79.4715 138.217 83.5682C139.933 87.6247 140.517 92.1908 140.362 97.4407C140.282 100.203 139.927 102.925 139.37 105.42C138.787 108.034 137.975 110.401 137.01 112.326C136.99 112.359 136.97 112.399 136.95 112.433C131.74 122.758 120.938 128.739 108.963 130.938C102.902 132.051 96.5458 132.192 90.4645 131.435C84.363 130.677 78.523 129.014 73.5346 126.52C73.501 126.5 73.4675 126.486 73.434 126.466C65.5758 122.51 59.8029 116.463 58.3613 108.598C58.1803 107.592 58.0797 106.573 58.0328 105.487C57.9859 104.447 57.9926 103.321 58.006 102.067C58.0261 100.418 58.0462 98.48 58.3211 96.6227C58.6161 94.6314 59.1927 92.707 60.3326 91.2186C61.4925 89.7032 63.0816 88.6573 64.9925 87.9667C66.8162 87.3163 68.9283 86.9945 71.2549 86.9207C71.2951 86.9207 71.3353 86.9207 71.3823 86.9207C73.6217 87.0749 75.7807 86.7866 77.8592 86.0893C79.9646 85.3853 82.0096 84.2588 84.0076 82.7502C86.1532 81.1344 88.1379 79.4246 90.0823 77.7618C98.2489 70.7552 105.624 64.419 119.296 68.0598ZM123.352 72.2571C121.83 71.5329 120.254 70.9429 118.645 70.5205C106.261 67.2217 99.3686 73.1421 91.7384 79.6861C89.7537 81.3891 87.7222 83.1391 85.5431 84.7751C83.3304 86.4447 81.0441 87.6918 78.6705 88.4897C76.2836 89.2875 73.8162 89.6228 71.2616 89.4552C69.2166 89.5289 67.3861 89.8038 65.8574 90.3536C64.3958 90.8766 63.209 91.6544 62.3575 92.7607C61.5193 93.8536 61.0835 95.3756 60.8422 96.9915C60.5874 98.7348 60.5605 100.552 60.5471 102.087C60.5337 103.287 60.5337 104.367 60.574 105.386C60.6142 106.358 60.7013 107.263 60.8623 108.142C62.1429 115.148 67.3996 120.586 74.5939 124.207C74.6275 124.22 74.6543 124.234 74.6811 124.247C79.4148 126.614 84.9664 128.189 90.7863 128.914C96.633 129.638 102.728 129.504 108.514 128.444C119.772 126.379 129.889 120.821 134.697 111.28C134.71 111.253 134.724 111.226 134.737 111.192C135.615 109.436 136.36 107.263 136.896 104.863C137.426 102.516 137.754 99.9618 137.828 97.3737C137.969 92.4724 137.439 88.2483 135.877 84.5539C134.328 80.8997 131.747 77.7149 127.757 74.8586C126.396 73.8796 124.914 73.0013 123.352 72.2571ZM121.83 99.1505C121.83 100.927 120.851 102.503 119.269 103.616C117.821 104.635 115.836 105.265 113.67 105.265C111.504 105.265 109.52 104.635 108.072 103.616C106.489 102.503 105.51 100.927 105.51 99.1505C105.51 97.3737 106.489 95.798 108.072 94.685C109.52 93.6658 111.504 93.0356 113.67 93.0356C115.836 93.0356 117.821 93.6658 119.269 94.685C120.851 95.798 121.83 97.3737 121.83 99.1505ZM117.807 101.537C118.719 100.894 119.282 100.049 119.282 99.1505C119.282 98.252 118.719 97.4072 117.807 96.7635C116.768 96.0327 115.306 95.5767 113.67 95.5767C112.034 95.5767 110.573 96.0327 109.533 96.7635C108.621 97.4072 108.058 98.252 108.058 99.1505C108.058 100.049 108.621 100.894 109.533 101.537C110.573 102.268 112.034 102.724 113.67 102.724C115.306 102.717 116.768 102.268 117.807 101.537ZM127.898 93.1295C127.033 92.0433 126.014 91.0308 124.888 90.1122C122.615 88.2818 120 86.8872 117.224 86.0692C114.589 85.2981 111.806 85.0433 109.037 85.4456C102.393 86.3977 98.2355 90.253 94.0248 94.1553C88.5737 99.2108 83.0421 104.333 72.2003 104.152C71.0135 104.159 70.0346 104.313 69.2568 104.595C68.4791 104.87 67.9292 105.252 67.5873 105.715C67.2655 106.144 67.1112 106.673 67.1112 107.257C67.1112 107.699 67.2051 108.182 67.3861 108.698C67.9762 110.361 69.4714 112.111 71.2884 113.687C73.6754 115.765 76.5518 117.495 78.6973 118.407C80.3803 119.124 82.2442 119.728 84.2825 120.231C86.3275 120.734 88.5603 121.122 90.9807 121.404C94.7623 121.847 98.269 122.021 101.514 121.947C104.739 121.873 107.723 121.545 110.465 120.975C113.436 120.351 116.111 119.446 118.491 118.253C120.838 117.079 122.916 115.624 124.727 113.895C127.006 111.38 129.045 108.604 130.131 105.641C131.183 102.771 131.338 99.6936 129.916 96.4618C129.407 95.2817 128.723 94.1687 127.898 93.1295Z" fill="white"/>
</g>
<defs>
<clipPath id="clip0_2019_3375">
<rect width="82.39" height="64.9103" fill="white" transform="translate(58 67)"/>
</clipPath>
</defs>
</svg>
