<svg width="32" height="32" viewBox="0 0 32 32" fill="none" xmlns="http://www.w3.org/2000/svg">
<path fill-rule="evenodd" clip-rule="evenodd" d="M14.6383 2.74821L10.9211 10.2657L2.60825 11.4787C1.54168 11.6343 1.11659 12.943 1.88876 13.6938L7.90278 19.5413L6.48346 27.8022C6.30119 28.8631 7.41672 29.6721 8.37105 29.1711L15.8047 25.2686L23.2384 29.1711C24.1927 29.6721 25.3083 28.8631 25.126 27.8022L23.7067 19.5413L29.7207 13.6938C30.4929 12.943 30.0678 11.6343 29.0012 11.4787L20.6884 10.2657L16.9712 2.74821C16.494 1.78315 15.1154 1.78315 14.6383 2.74821ZM11.9733 12.7369C12.3965 12.6752 12.7623 12.4097 12.9516 12.0268L15.8047 6.25678L18.6578 12.0268C18.8472 12.4097 19.2129 12.6752 19.6362 12.7369L26.0183 13.6682L21.4013 18.1574C21.0944 18.4557 20.9544 18.8857 21.0268 19.3071L22.1161 25.6475L16.4102 22.6521C16.0312 22.4531 15.5783 22.4531 15.1992 22.6521L9.49331 25.6475L10.5827 19.3071C10.6551 18.8857 10.515 18.4557 10.2082 18.1574L5.59111 13.6682L11.9733 12.7369Z" fill="white"/>
<mask id="mask0_1111_3728" style="mask-type:alpha" maskUnits="userSpaceOnUse" x="1" y="2" width="30" height="28">
<path fill-rule="evenodd" clip-rule="evenodd" d="M14.6383 2.74821L10.9211 10.2657L2.60825 11.4787C1.54168 11.6343 1.11659 12.943 1.88876 13.6938L7.90278 19.5413L6.48346 27.8022C6.30119 28.8631 7.41672 29.6721 8.37105 29.1711L15.8047 25.2686L23.2384 29.1711C24.1927 29.6721 25.3083 28.8631 25.126 27.8022L23.7067 19.5413L29.7207 13.6938C30.4929 12.943 30.0678 11.6343 29.0012 11.4787L20.6884 10.2657L16.9712 2.74821C16.494 1.78315 15.1154 1.78315 14.6383 2.74821ZM11.9733 12.7369C12.3965 12.6752 12.7623 12.4097 12.9516 12.0268L15.8047 6.25678L18.6578 12.0268C18.8472 12.4097 19.2129 12.6752 19.6362 12.7369L26.0183 13.6682L21.4013 18.1574C21.0944 18.4557 20.9544 18.8857 21.0268 19.3071L22.1161 25.6475L16.4102 22.6521C16.0312 22.4531 15.5783 22.4531 15.1992 22.6521L9.49331 25.6475L10.5827 19.3071C10.6551 18.8857 10.515 18.4557 10.2082 18.1574L5.59111 13.6682L11.9733 12.7369Z" fill="white"/>
</mask>
<g mask="url(#mask0_1111_3728)">
<rect x="0.193359" y="0.725586" width="31.22" height="31.1656" fill="white"/>
</g>
</svg>
