<svg width="37" height="38" viewBox="0 0 37 38" fill="none" xmlns="http://www.w3.org/2000/svg">
<path fill-rule="evenodd" clip-rule="evenodd" d="M17.0619 3.01636L12.7256 11.8179L3.02819 13.238C1.78397 13.4202 1.28808 14.9525 2.18886 15.8315L9.20457 22.6777L7.54885 32.3497C7.33622 33.5917 8.63754 34.5389 9.75082 33.9523L18.4226 29.3833L27.0944 33.9523C28.2077 34.5389 29.5091 33.5917 29.2964 32.3497L27.6407 22.6777L34.6564 15.8315C35.5572 14.9525 35.0613 13.4202 33.8171 13.238L24.1197 11.8179L19.7834 3.01636C19.2267 1.88647 17.6186 1.88647 17.0619 3.01636ZM13.953 14.7112C14.4468 14.6389 14.8735 14.328 15.0943 13.8798L18.4226 7.1242L21.751 13.8798C21.9718 14.328 22.3985 14.6389 22.8922 14.7112L30.3374 15.8015L24.9513 21.0574C24.5934 21.4067 24.43 21.9102 24.5145 22.4036L25.7853 29.8269L19.129 26.3198C18.6868 26.0869 18.1585 26.0869 17.7163 26.3198L11.06 29.8269L12.3308 22.4036C12.4153 21.9102 12.2519 21.4067 11.894 21.0574L6.50787 15.8015L13.953 14.7112Z" fill="black"/>
<mask id="mask0_1111_3775" style="mask-type:alpha" maskUnits="userSpaceOnUse" x="1" y="2" width="35" height="33">
<path fill-rule="evenodd" clip-rule="evenodd" d="M17.0619 3.01636L12.7256 11.8179L3.02819 13.238C1.78397 13.4202 1.28808 14.9525 2.18886 15.8315L9.20457 22.6777L7.54885 32.3497C7.33622 33.5917 8.63754 34.5389 9.75082 33.9523L18.4226 29.3833L27.0944 33.9523C28.2077 34.5389 29.5091 33.5917 29.2964 32.3497L27.6407 22.6777L34.6564 15.8315C35.5572 14.9525 35.0613 13.4202 33.8171 13.238L24.1197 11.8179L19.7834 3.01636C19.2267 1.88647 17.6186 1.88647 17.0619 3.01636ZM13.953 14.7112C14.4468 14.6389 14.8735 14.328 15.0943 13.8798L18.4226 7.1242L21.751 13.8798C21.9718 14.328 22.3985 14.6389 22.8922 14.7112L30.3374 15.8015L24.9513 21.0574C24.5934 21.4067 24.43 21.9102 24.5145 22.4036L25.7853 29.8269L19.129 26.3198C18.6868 26.0869 18.1585 26.0869 17.7163 26.3198L11.06 29.8269L12.3308 22.4036C12.4153 21.9102 12.2519 21.4067 11.894 21.0574L6.50787 15.8015L13.953 14.7112Z" fill="white"/>
</mask>
<g mask="url(#mask0_1111_3775)">
<rect x="0.210938" y="0.648438" width="36.4199" height="36.4888" fill="black"/>
</g>
</svg>
