<svg width="104" height="107" viewBox="0 0 104 107" fill="none" xmlns="http://www.w3.org/2000/svg">
<mask id="mask0_1111_3839" style="mask-type:alpha" maskUnits="userSpaceOnUse" x="24" y="30" width="55" height="47">
<path d="M75.26 30.6027C76.9725 29.3609 79.2668 30.9666 78.7709 33.0599C77.994 36.3396 76.4368 39.3625 74.2468 41.8608C74.2805 42.2385 74.2981 42.6186 74.2993 43.001C74.2993 70.6542 48.3395 84.8598 25.5696 71.8544C23.4814 70.6618 24.3743 67.3886 26.7611 67.4862C30.5864 67.6426 34.3731 66.8608 37.8164 65.2301C32.8174 62.0622 29.6164 57.8682 28.0461 52.9067C26.4247 47.784 26.6614 42.4007 28.014 37.2881C28.4232 35.7416 28.839 34.5763 29.1345 33.8929C29.8504 32.2367 32.05 32.0166 33.0631 33.4998C36.8543 39.0499 42.8487 42.5146 49.3505 43.0162C49.3157 37.6892 52.5007 32.8947 57.347 30.9929C61.7297 29.2732 66.6325 30.2482 70.0645 33.4059C71.9063 32.7099 73.6533 31.7679 75.26 30.6027ZM70.0997 38.3084C69.2455 38.5729 68.3198 38.2979 67.7344 37.6059C65.561 35.0367 62.0587 34.1357 58.9645 35.3499C55.8703 36.564 53.8426 39.6351 53.8872 43.0709V45.4027C53.8872 46.6669 52.9072 47.7009 51.6779 47.7337C44.2826 47.9308 37.2172 44.9378 32.1234 39.6042C31.2275 43.5801 31.162 47.6802 32.3595 51.4637C33.895 56.3152 37.4101 60.2537 43.4682 63.0218C45.0939 63.7646 45.2928 66.0547 43.8209 67.0819C41.2827 68.8532 38.5017 70.1825 35.5888 71.0373C53.0053 75.7481 69.7633 63.8613 69.7633 43.0087C69.7617 42.5035 69.7144 41.9996 69.6222 41.5034C69.48 40.7389 69.7183 39.9519 70.2573 39.4054C70.7625 38.8932 71.2305 38.3472 71.6586 37.772C71.1449 37.9669 70.625 38.1458 70.0997 38.3084Z" fill="white"/>
</mask>
<g mask="url(#mask0_1111_3839)">
<path d="M75.26 30.6027C76.9725 29.3609 79.2668 30.9666 78.7709 33.0599C77.994 36.3396 76.4368 39.3625 74.2468 41.8608C74.2805 42.2385 74.2981 42.6186 74.2993 43.001C74.2993 70.6542 48.3395 84.8598 25.5696 71.8544C23.4814 70.6618 24.3743 67.3886 26.7611 67.4862C30.5864 67.6426 34.3731 66.8608 37.8164 65.2301C32.8174 62.0622 29.6164 57.8682 28.0461 52.9067C26.4247 47.784 26.6614 42.4007 28.014 37.2881C28.4232 35.7416 28.839 34.5763 29.1345 33.8929C29.8504 32.2367 32.05 32.0166 33.0631 33.4998C36.8543 39.0499 42.8487 42.5146 49.3505 43.0162C49.3157 37.6892 52.5007 32.8947 57.347 30.9929C61.7297 29.2732 66.6325 30.2482 70.0645 33.4059C71.9063 32.7099 73.6533 31.7679 75.26 30.6027ZM70.0997 38.3084C69.2455 38.5729 68.3198 38.2979 67.7344 37.6059C65.561 35.0367 62.0587 34.1357 58.9645 35.3499C55.8703 36.564 53.8426 39.6351 53.8872 43.0709V45.4027C53.8872 46.6669 52.9072 47.7009 51.6779 47.7337C44.2826 47.9308 37.2172 44.9378 32.1234 39.6042C31.2275 43.5801 31.162 47.6802 32.3595 51.4637C33.895 56.3152 37.4101 60.2537 43.4682 63.0218C45.0939 63.7646 45.2928 66.0547 43.8209 67.0819C41.2827 68.8532 38.5017 70.1825 35.5888 71.0373C53.0053 75.7481 69.7633 63.8613 69.7633 43.0087C69.7617 42.5035 69.7144 41.9996 69.6222 41.5034C69.48 40.7389 69.7183 39.9519 70.2573 39.4054C70.7625 38.8932 71.2305 38.3472 71.6586 37.772C71.1449 37.9669 70.625 38.1458 70.0997 38.3084Z" fill="black"/>
<path d="M78.8308 25.4844H24.3984V81.4436H78.8308V25.4844Z" fill="black"/>
</g>
<path d="M51.6216 105.926C79.8046 105.926 102.651 82.4378 102.651 53.4632C102.651 24.4886 79.8046 1 51.6216 1C23.4386 1 0.591797 24.4886 0.591797 53.4632C0.591797 82.4378 23.4386 105.926 51.6216 105.926Z" stroke="#D9D9D9"/>
</svg>
