<svg width="198" height="199" viewBox="0 0 198 199" fill="none" xmlns="http://www.w3.org/2000/svg">
<circle cx="98.881" cy="99.6291" r="98.8693" fill="#342679" fill-opacity="0.7"/>
<path d="M138.709 89.4213C138.444 87.973 137.582 86.7127 136.283 85.8733C135.669 85.4768 135.028 85.1318 134.374 84.8125C137.218 83.9551 139.171 81.0985 138.728 78.1697C138.511 76.7356 137.748 75.5023 136.581 74.6964C136.447 74.6038 136.298 74.5445 136.157 74.466C136.155 74.4493 136.156 74.4325 136.153 74.4158C135.936 72.9817 135.174 71.7484 134.006 70.9425C132.795 70.1057 131.292 69.8277 129.785 70.1508C129.123 70.2924 128.469 70.4726 127.824 70.6889C128.041 70.0439 128.221 69.3899 128.362 68.7282C128.688 67.2169 128.406 65.7171 127.571 64.507C126.765 63.3394 125.531 62.5772 124.093 62.3584C124.078 62.3558 124.063 62.3571 124.046 62.3545C123.967 62.2142 123.908 62.0649 123.815 61.9323C123.01 60.7646 121.776 60.0025 120.341 59.785C117.417 59.3395 114.557 61.2937 113.699 64.1401C113.38 63.4861 113.035 62.845 112.639 62.2309C111.799 60.932 110.539 60.0707 109.091 59.8055C107.694 59.5519 106.284 59.8841 105.118 60.744C102.52 62.6558 101.964 66.5333 103.901 69.211C105.116 70.8897 106.177 72.7204 107.05 74.6501L107.32 75.2474C102.107 74.7467 96.9546 76.5683 93.1698 80.3531C92.2545 81.2684 91.437 82.288 90.7405 83.3848L59.6997 132.326C58.5127 134.198 58.7792 136.598 60.3459 138.163C61.2574 139.076 62.4521 139.547 63.6609 139.547C64.5273 139.547 65.4014 139.305 66.1815 138.81L115.13 107.77C116.226 107.075 117.246 106.257 118.166 105.336C121.946 101.556 123.765 96.4065 123.264 91.1901L123.863 91.4605C125.793 92.3346 127.623 93.3941 129.303 94.6106C130.382 95.3908 131.655 95.7654 132.918 95.7654C134.786 95.7654 136.628 94.9415 137.77 93.3915C138.63 92.2277 138.964 90.8155 138.709 89.4213ZM133.195 82.4773C132.018 82.6639 130.839 82.9278 129.678 83.2445C127.546 82.8351 125.329 82.7759 123.115 83.1081L122.905 83.1402L123.165 82.7875C125.549 79.5575 129.096 77.2364 132.9 76.4215C133.711 76.2451 134.498 76.3868 135.12 76.8154C135.695 77.2145 136.074 77.8325 136.184 78.5572C136.455 80.3454 135.058 82.1773 133.195 82.4773ZM130.326 72.6663C131.138 72.4899 131.924 72.6315 132.545 73.0602C132.831 73.2585 133.068 73.5108 133.248 73.803C132.953 73.8198 132.658 73.8416 132.361 73.9047C127.889 74.8638 123.887 77.4759 121.095 81.2594L119.307 83.6835L116.177 84.156L126.079 74.2549C127.43 73.5185 128.858 72.9804 130.326 72.6663ZM124.606 66.1509C124.67 65.8536 124.692 65.5588 124.709 65.2652C125.001 65.4455 125.253 65.6811 125.45 65.9669C125.878 66.5874 126.018 67.3752 125.844 68.1863C125.528 69.6577 124.991 71.0854 124.254 72.4358L114.356 82.3344L114.828 79.2048L117.252 77.4166C121.035 74.6244 123.647 70.6232 124.606 66.1509ZM116.033 65.3167C116.332 63.4539 118.173 62.0623 119.953 62.3275C120.678 62.4382 121.297 62.8167 121.696 63.3921C122.124 64.0126 122.264 64.8005 122.09 65.6115C121.274 69.4144 118.953 72.9624 115.724 75.3466L115.372 75.6066L115.404 75.3968C115.737 73.1825 115.678 70.9657 115.267 68.8325C115.583 67.6713 115.847 66.4908 116.033 65.3167ZM105.985 67.6984C104.88 66.169 105.186 63.8865 106.643 62.8128C107.107 62.473 107.64 62.294 108.18 62.294C108.328 62.294 108.478 62.3082 108.627 62.3352C109.369 62.4704 110.025 62.9287 110.476 63.6251C112.588 66.8912 113.455 71.0416 112.857 75.0106L112.153 79.6798L109.396 73.5867C108.449 71.4974 107.301 69.5174 105.985 67.6984ZM116.341 103.522C115.56 104.303 114.688 105.001 113.751 105.596L64.8028 136.635C63.9583 137.172 62.8743 137.05 62.1663 136.343C61.4582 135.635 61.3372 134.551 61.874 133.705L92.911 84.7597C93.5071 83.8213 94.2048 82.951 94.9927 82.1619C98.587 78.5688 103.631 77.0742 108.587 78.05L111.6 84.707C111.665 84.8511 111.762 84.9722 111.869 85.0803L111.862 85.0867L113.419 86.6432L113.423 86.6393C113.531 86.7474 113.653 86.8414 113.798 86.9058L120.457 89.9182C121.438 94.8797 119.94 99.9223 116.341 103.522ZM135.698 91.8685C134.623 93.3246 132.342 93.6297 130.813 92.5277C128.993 91.2107 127.013 90.0624 124.925 89.1175L118.832 86.3599L123.501 85.6557C127.469 85.0546 131.622 85.9248 134.887 88.0374C135.583 88.4879 136.04 89.1432 136.177 89.886C136.302 90.5735 136.132 91.2777 135.698 91.8685Z" fill="white"/>
<path d="M101.723 96.7873C99.0606 94.125 97.5943 90.5848 97.5943 86.8192V86.7549L95.0195 86.8192C95.0195 91.2722 96.7536 95.4587 99.9025 98.6076C103.051 101.756 107.238 103.491 111.755 103.491L111.691 100.916C107.925 100.916 104.385 99.4495 101.723 96.7873Z" fill="white"/>
<path d="M94.4202 103.647C92.3154 101.542 91.1568 98.743 91.1568 95.7666H88.582C88.582 99.4317 90.0084 102.875 92.5999 105.467L93.0427 105.91C95.6342 108.501 99.0779 109.928 102.743 109.928V107.353C99.7666 107.353 96.9679 106.194 94.8631 104.089L94.4202 103.647Z" fill="white"/>
<path d="M87.5614 110.949C85.7295 109.116 84.7202 106.681 84.7202 104.09V103.491H82.1455V104.09C82.1455 107.369 83.4226 110.451 85.7411 112.769C88.0596 115.088 91.1416 116.365 94.4205 116.365H95.0191V113.79H94.4205C91.829 113.79 89.3946 112.781 87.5614 110.949Z" fill="white"/>
<path d="M79.1939 119.316C78.6068 118.729 78.2837 117.948 78.2837 117.119V115.077H75.709V117.119C75.709 118.637 76.2999 120.063 77.3735 121.137C78.4472 122.21 79.8736 122.801 81.3914 122.801H83.4331V120.227H81.3914C80.5623 120.227 79.7809 119.903 79.1939 119.316Z" fill="white"/>
</svg>
